#tb 0: 1/44100
#media_type 0: audio
#codec_id 0: pcm_s16le
#sample_rate 0: 44100
#channel_layout_name 0: mono
0,          0,          0,     1152,     2304, 0x91103653
0,       1152,       1152,     1152,     2304, 0x37e87ec2
0,       2304,       2304,     1152,     2304, 0x117d7615
0,       3456,       3456,     1152,     2304, 0xeb55811d
0,       4608,       4608,     1152,     2304, 0x2b65722b
0,       5760,       5760,     1152,     2304, 0x24107e28
0,       6912,       6912,     1152,     2304, 0xb4b577e9
0,       8064,       8064,     1152,     2304, 0x85c38411
0,       9216,       9216,     1152,     2304, 0x4ea07221
0,      10368,      10368,     1152,     2304, 0x707880e4
0,      11520,      11520,     1152,     2304, 0xf9df87e8
0,      12672,      12672,     1152,     2304, 0x0f027338
0,      13824,      13824,     1152,     2304, 0x7fbb734f
0,      14976,      14976,     1152,     2304, 0xbb707818
0,      16128,      16128,     1152,     2304, 0x9c8e8a13
0,      17280,      17280,     1152,     2304, 0x8a0f7839
0,      18432,      18432,     1152,     2304, 0x6d6c7786
0,      19584,      19584,     1152,     2304, 0x807164a0
0,      20736,      20736,     1152,     2304, 0xbc5c7caa
0,      21888,      21888,     1152,     2304, 0x1114827f
0,      23040,      23040,     1152,     2304, 0x7eab8309
0,      24192,      24192,     1152,     2304, 0xdb4a88b5
0,      25344,      25344,     1152,     2304, 0x8b237279
0,      26496,      26496,     1152,     2304, 0xa30282de
0,      27648,      27648,     1152,     2304, 0x473c835d
0,      28800,      28800,     1152,     2304, 0xc08087bc
0,      29952,      29952,     1152,     2304, 0xe7585f07
0,      31104,      31104,     1152,     2304, 0x039387ea
0,      32256,      32256,     1152,     2304, 0xd05d6c0f
0,      33408,      33408,     1152,     2304, 0xda1e8282
0,      34560,      34560,     1152,     2304, 0x482f754a
0,      35712,      35712,     1152,     2304, 0xb44e72f7
0,      36864,      36864,     1152,     2304, 0xd1ab8694
0,      38016,      38016,     1152,     2304, 0x110d7a1c
0,      39168,      39168,     1152,     2304, 0x8e967f30
0,      40320,      40320,     1152,     2304, 0x02797ae0
0,      41472,      41472,     1152,     2304, 0x6518729c
0,      42624,      42624,     1152,     2304, 0x78fc7104
0,      43776,      43776,     1152,     2304, 0xebb86dec
0,      44928,      44928,     1152,     2304, 0x2470796e
0,      46080,      46080,     1152,     2304, 0x9ce57b23
0,      47232,      47232,     1152,     2304, 0xa9e78195
0,      48384,      48384,     1152,     2304, 0xd3e09235
0,      49536,      49536,     1152,     2304, 0xb8126bd9
0,      50688,      50688,     1152,     2304, 0x891a78bd
0,      51840,      51840,     1152,     2304, 0x698f729c
0,      52992,      52992,     1152,     2304, 0x20a97909
0,      54144,      54144,     1152,     2304, 0x281b8ba0
0,      55296,      55296,     1152,     2304, 0xcfe18c52
0,      56448,      56448,     1152,     2304, 0x94809243
0,      57600,      57600,     1152,     2304, 0x2cfc7bc7
0,      58752,      58752,     1152,     2304, 0xaca77e63
0,      59904,      59904,     1152,     2304, 0xebde8709
0,      61056,      61056,     1152,     2304, 0x35b576c3
0,      62208,      62208,     1152,     2304, 0x56576b08
0,      63360,      63360,     1152,     2304, 0xbf1b6c22
0,      64512,      64512,     1152,     2304, 0xb7ae824d
0,      65664,      65664,     1152,     2304, 0x756b6e3b
0,      66816,      66816,     1152,     2304, 0x52bf770a
0,      67968,      67968,     1152,     2304, 0xe7a782a7
0,      69120,      69120,     1152,     2304, 0x1e357d9a
0,      70272,      70272,     1152,     2304, 0x424a6d78
0,      71424,      71424,     1152,     2304, 0x6dae7daa
0,      72576,      72576,     1152,     2304, 0xc7c97e86
0,      73728,      73728,     1152,     2304, 0xa9f27120
0,      74880,      74880,     1152,     2304, 0x05e87417
0,      76032,      76032,     1152,     2304, 0x1023782c
0,      77184,      77184,     1152,     2304, 0x56bf7213
0,      78336,      78336,     1152,     2304, 0xfa4e8332
0,      79488,      79488,     1152,     2304, 0x02296ee5
0,      80640,      80640,     1152,     2304, 0xb35079e6
0,      81792,      81792,     1152,     2304, 0xfd5978da
0,      82944,      82944,     1152,     2304, 0x6e2f7c7e
0,      84096,      84096,     1152,     2304, 0xd45374a1
0,      85248,      85248,     1152,     2304, 0xc0d3799b
0,      86400,      86400,     1152,     2304, 0x29ac7df2
0,      87552,      87552,     1152,     2304, 0x555f7b86
0,      88704,      88704,     1152,     2304, 0x691973ff
0,      89856,      89856,     1152,     2304, 0x033e800f
0,      91008,      91008,     1152,     2304, 0x79b37cf2
0,      92160,      92160,     1152,     2304, 0x7e787339
0,      93312,      93312,     1152,     2304, 0xe12281fe
0,      94464,      94464,     1152,     2304, 0xeb1f70f8
0,      95616,      95616,     1152,     2304, 0x647b7ee6
0,      96768,      96768,     1152,     2304, 0xaedd896d
0,      97920,      97920,     1152,     2304, 0xf2cf7308
0,      99072,      99072,     1152,     2304, 0x59737837
0,     100224,     100224,     1152,     2304, 0x7216810f
0,     101376,     101376,     1152,     2304, 0xa0ea77b0
0,     102528,     102528,     1152,     2304, 0x6cda7eeb
0,     103680,     103680,     1152,     2304, 0x6d5a73c8
0,     104832,     104832,     1152,     2304, 0xbab06dc4
0,     105984,     105984,     1152,     2304, 0x37a279e3
0,     107136,     107136,     1152,     2304, 0x5e35672c
0,     108288,     108288,     1152,     2304, 0x0a6879a5
0,     109440,     109440,     1152,     2304, 0xad2b7f1d
0,     110592,     110592,     1152,     2304, 0x8639740b
0,     111744,     111744,     1152,     2304, 0x9ae07388
0,     112896,     112896,     1152,     2304, 0xd07d81aa
0,     114048,     114048,     1152,     2304, 0xee6c6f1d
0,     115200,     115200,     1152,     2304, 0xe97789c7
0,     116352,     116352,     1152,     2304, 0xae509460
0,     117504,     117504,     1152,     2304, 0x6aba6763
0,     118656,     118656,     1152,     2304, 0xf6e18172
0,     119808,     119808,     1152,     2304, 0xf5358514
0,     120960,     120960,     1152,     2304, 0x610474ed
0,     122112,     122112,     1152,     2304, 0x07be7948
0,     123264,     123264,     1152,     2304, 0x6b036f0f
0,     124416,     124416,     1152,     2304, 0xb0ab7bda
0,     125568,     125568,     1152,     2304, 0xc89581cd
0,     126720,     126720,     1152,     2304, 0xde7b7413
0,     127872,     127872,     1152,     2304, 0xb52e7d82
0,     129024,     129024,     1152,     2304, 0xaa9186f2
0,     130176,     130176,     1152,     2304, 0xe5e17b3d
0,     131328,     131328,     1152,     2304, 0xf82a93db
0,     132480,     132480,     1152,     2304, 0x92197c9c
0,     133632,     133632,     1152,     2304, 0x5f926b96
0,     134784,     134784,     1152,     2304, 0x84c7748c
0,     135936,     135936,     1152,     2304, 0xdd18906b
0,     137088,     137088,     1152,     2304, 0x74db7968
0,     138240,     138240,     1152,     2304, 0x4487893e
0,     139392,     139392,     1152,     2304, 0xf1737e84
0,     140544,     140544,     1152,     2304, 0x555c74ad
0,     141696,     141696,     1152,     2304, 0xff1e7093
0,     142848,     142848,     1152,     2304, 0xb1ca8a1c
0,     144000,     144000,     1152,     2304, 0x15d2709a
0,     145152,     145152,     1152,     2304, 0xa5947e3a
0,     146304,     146304,     1152,     2304, 0x0ade7a81
0,     147456,     147456,     1152,     2304, 0xc7457a13
0,     148608,     148608,     1152,     2304, 0xcdf57b94
0,     149760,     149760,     1152,     2304, 0x4fed744f
0,     150912,     150912,     1152,     2304, 0x3f1d6a8b
0,     152064,     152064,     1152,     2304, 0x64ef78d0
0,     153216,     153216,     1152,     2304, 0x85288606
0,     154368,     154368,     1152,     2304, 0x833484cb
0,     155520,     155520,     1152,     2304, 0x13a77e2f
0,     156672,     156672,     1152,     2304, 0x87677ceb
0,     157824,     157824,     1152,     2304, 0x7600662a
0,     158976,     158976,     1152,     2304, 0x95398bfa
0,     160128,     160128,     1152,     2304, 0x24d68231
0,     161280,     161280,     1152,     2304, 0xbd2774de
0,     162432,     162432,     1152,     2304, 0x46be78cd
0,     163584,     163584,     1152,     2304, 0xe5937dee
0,     164736,     164736,     1152,     2304, 0x16f06d1c
0,     165888,     165888,     1152,     2304, 0x70567f20
0,     167040,     167040,     1152,     2304, 0x058381db
0,     168192,     168192,     1152,     2304, 0xcd8885c2
0,     169344,     169344,     1152,     2304, 0x965877a3
0,     170496,     170496,     1152,     2304, 0xc0087500
0,     171648,     171648,     1152,     2304, 0x1da47bfc
0,     172800,     172800,     1152,     2304, 0xd21777a4
0,     173952,     173952,     1152,     2304, 0xd2758779
0,     175104,     175104,     1152,     2304, 0xfa8e7262
0,     176256,     176256,     1152,     2304, 0x48667b11
0,     177408,     177408,     1152,     2304, 0x0c426f23
0,     178560,     178560,     1152,     2304, 0x097a8207
0,     179712,     179712,     1152,     2304, 0x76e96d84
0,     180864,     180864,     1152,     2304, 0xc70f77d8
0,     182016,     182016,     1152,     2304, 0x82167bd2
0,     183168,     183168,     1152,     2304, 0x269e7d8a
0,     184320,     184320,     1152,     2304, 0xbdb084c4
0,     185472,     185472,     1152,     2304, 0x24f17acd
0,     186624,     186624,     1152,     2304, 0xbbff68f6
0,     187776,     187776,     1152,     2304, 0xe78382ce
0,     188928,     188928,     1152,     2304, 0x528f9227
0,     190080,     190080,     1152,     2304, 0x60647ab5
0,     191232,     191232,     1152,     2304, 0xedef7fc6
0,     192384,     192384,     1152,     2304, 0x3b7678c4
0,     193536,     193536,     1152,     2304, 0x6b156da1
0,     194688,     194688,     1152,     2304, 0x60337480
0,     195840,     195840,     1152,     2304, 0xcc2c7e16
0,     196992,     196992,     1152,     2304, 0x13ad827a
0,     198144,     198144,     1152,     2304, 0x7c298d7d
0,     199296,     199296,     1152,     2304, 0xb28d8845
0,     200448,     200448,     1152,     2304, 0x6f018667
0,     201600,     201600,     1152,     2304, 0x28988a86
0,     202752,     202752,     1152,     2304, 0x2722676f
0,     203904,     203904,     1152,     2304, 0x13fa6fbe
0,     205056,     205056,     1152,     2304, 0xf3d77313
0,     206208,     206208,     1152,     2304, 0xe2a0823f
0,     207360,     207360,     1152,     2304, 0x309778f8
0,     208512,     208512,     1152,     2304, 0xf4c47889
0,     209664,     209664,     1152,     2304, 0x8ec48965
0,     210816,     210816,     1152,     2304, 0x6ef477d7
0,     211968,     211968,     1152,     2304, 0xd522773d
0,     213120,     213120,     1152,     2304, 0xdb0d85e5
0,     214272,     214272,     1152,     2304, 0x72b78058
0,     215424,     215424,     1152,     2304, 0xe3458144
0,     216576,     216576,     1152,     2304, 0xbb8e851c
0,     217728,     217728,     1152,     2304, 0x8f8c758f
0,     218880,     218880,     1152,     2304, 0x39ce6c8b
0,     220032,     220032,     1152,     2304, 0x7d6b721f
0,     221184,     221184,     1152,     2304, 0x866e6e0a
0,     222336,     222336,     1152,     2304, 0x00877b3b
0,     223488,     223488,     1152,     2304, 0x82b18d69
0,     224640,     224640,     1152,     2304, 0xa11683ff
0,     225792,     225792,     1152,     2304, 0x42847b7c
0,     226944,     226944,     1152,     2304, 0xab677759
0,     228096,     228096,     1152,     2304, 0xb9c186e5
0,     229248,     229248,     1152,     2304, 0x74b27dd9
0,     230400,     230400,     1152,     2304, 0x63e772f2
0,     231552,     231552,     1152,     2304, 0xa584713c
0,     232704,     232704,     1152,     2304, 0x18d67d55
0,     233856,     233856,     1152,     2304, 0x9218761b
0,     235008,     235008,     1152,     2304, 0x95a4610a
0,     236160,     236160,     1152,     2304, 0xb2658832
0,     237312,     237312,     1152,     2304, 0x0f8780eb
0,     238464,     238464,     1152,     2304, 0x9c09808b
0,     239616,     239616,     1152,     2304, 0xddb88218
0,     240768,     240768,     1152,     2304, 0xa0c67a1f
0,     241920,     241920,     1152,     2304, 0x8f238549
0,     243072,     243072,     1152,     2304, 0xe8cb7826
0,     244224,     244224,     1152,     2304, 0x6fde7f4c
0,     245376,     245376,     1152,     2304, 0xe4d880f2
0,     246528,     246528,     1152,     2304, 0x8f247a6d
0,     247680,     247680,     1152,     2304, 0x4ff27068
0,     248832,     248832,     1152,     2304, 0x57c1807d
0,     249984,     249984,     1152,     2304, 0x208c77f7
0,     251136,     251136,     1152,     2304, 0xaef279ab
0,     252288,     252288,     1152,     2304, 0x28458533
0,     253440,     253440,     1152,     2304, 0x2a417422
0,     254592,     254592,     1152,     2304, 0x6dbf8e04
0,     255744,     255744,     1152,     2304, 0x0b106fa2
0,     256896,     256896,     1152,     2304, 0x64e67952
0,     258048,     258048,     1152,     2304, 0xe0ee81d3
0,     259200,     259200,     1152,     2304, 0x6c7b827b
0,     260352,     260352,     1152,     2304, 0xa8e36c2d
0,     261504,     261504,     1152,     2304, 0x0d297af9
0,     262656,     262656,     1152,     2304, 0xbaa77cba
0,     263808,     263808,     1152,     2304, 0x38928029
0,     264960,     264960,     1152,     2304, 0x65a78f89
0,     266112,     266112,     1152,     2304, 0xa9727739
0,     267264,     267264,     1152,     2304, 0x505b77f2
0,     268416,     268416,     1152,     2304, 0x653b7383
0,     269568,     269568,     1152,     2304, 0x9c6c8528
0,     270720,     270720,     1152,     2304, 0xfbab7796
0,     271872,     271872,     1152,     2304, 0x6cdd5e3f
0,     273024,     273024,     1152,     2304, 0x00ba8e7b
0,     274176,     274176,     1152,     2304, 0x28178a47
0,     275328,     275328,     1152,     2304, 0x1c3a7ffa
0,     276480,     276480,     1152,     2304, 0x651d85b0
0,     277632,     277632,     1152,     2304, 0x01097770
0,     278784,     278784,     1152,     2304, 0x84086bcd
0,     279936,     279936,     1152,     2304, 0x49c5860f
0,     281088,     281088,     1152,     2304, 0x0e4f7995
0,     282240,     282240,     1152,     2304, 0x3be291d9
0,     283392,     283392,     1152,     2304, 0xa78e7fca
0,     284544,     284544,     1152,     2304, 0xfd4b759d
0,     285696,     285696,     1152,     2304, 0x29d06da5
0,     286848,     286848,     1152,     2304, 0x9cc57a60
0,     288000,     288000,     1152,     2304, 0x22327452
0,     289152,     289152,     1152,     2304, 0xcd377bd1
0,     290304,     290304,     1152,     2304, 0xbff680ce
0,     291456,     291456,     1152,     2304, 0xfe7b8099
0,     292608,     292608,     1152,     2304, 0x7c588321
0,     293760,     293760,     1152,     2304, 0xb82a7f1a
0,     294912,     294912,     1152,     2304, 0x4f947474
0,     296064,     296064,     1152,     2304, 0x1d9e823b
0,     297216,     297216,     1152,     2304, 0x140f7201
0,     298368,     298368,     1152,     2304, 0x95c16864
0,     299520,     299520,     1152,     2304, 0x0bca8659
0,     300672,     300672,     1152,     2304, 0x1586718d
0,     301824,     301824,     1152,     2304, 0xdbb28d08
0,     302976,     302976,     1152,     2304, 0xeab6744f
0,     304128,     304128,     1152,     2304, 0x1268798c
0,     305280,     305280,     1152,     2304, 0x6aef9246
0,     306432,     306432,     1152,     2304, 0x1ac87df1
0,     307584,     307584,     1152,     2304, 0xd7b279b2
0,     308736,     308736,     1152,     2304, 0x59d37ed4
0,     309888,     309888,     1152,     2304, 0x5d968003
0,     311040,     311040,     1152,     2304, 0xc8e07693
0,     312192,     312192,     1152,     2304, 0x1484752e
0,     313344,     313344,     1152,     2304, 0xa6067538
0,     314496,     314496,     1152,     2304, 0xdd6b7997
0,     315648,     315648,     1152,     2304, 0x1a908b2e
0,     316800,     316800,     1152,     2304, 0xa493680c
0,     317952,     317952,     1152,     2304, 0xbd1b80a7
0,     319104,     319104,     1152,     2304, 0xc112825f
0,     320256,     320256,     1152,     2304, 0x1ed08689
0,     321408,     321408,     1152,     2304, 0xec0763c1
0,     322560,     322560,     1152,     2304, 0x5b39718b
0,     323712,     323712,     1152,     2304, 0x2d917b4b
0,     324864,     324864,     1152,     2304, 0xb9827fe0
0,     326016,     326016,     1152,     2304, 0x22056d6f
0,     327168,     327168,     1152,     2304, 0x464f8b57
0,     328320,     328320,     1152,     2304, 0x3c318023
0,     329472,     329472,     1152,     2304, 0x9ddc7618
0,     330624,     330624,     1152,     2304, 0x40c28197
0,     331776,     331776,     1152,     2304, 0x811f7d46
0,     332928,     332928,     1152,     2304, 0xe740835e
0,     334080,     334080,     1152,     2304, 0xf5f97e6b
0,     335232,     335232,     1152,     2304, 0x01e47989
0,     336384,     336384,     1152,     2304, 0xc4598343
0,     337536,     337536,     1152,     2304, 0x8e5672aa
0,     338688,     338688,     1152,     2304, 0xd02a805a
0,     339840,     339840,     1152,     2304, 0x33ed7900
0,     340992,     340992,     1152,     2304, 0x8a9e7c38
0,     342144,     342144,     1152,     2304, 0x7ec168ad
0,     343296,     343296,     1152,     2304, 0xf6106d57
0,     344448,     344448,     1152,     2304, 0x7bc1798c
0,     345600,     345600,     1152,     2304, 0xdaad808f
0,     346752,     346752,     1152,     2304, 0x4d877869
0,     347904,     347904,     1152,     2304, 0x11bf7ec1
0,     349056,     349056,     1152,     2304, 0x938381bf
0,     350208,     350208,     1152,     2304, 0xe7ea789f
0,     351360,     351360,     1152,     2304, 0x98d185dc
0,     352512,     352512,     1152,     2304, 0x50ab631c
